<?xml version="1.0" standalone="no"?>
<!DOCTYPE svg PUBLIC "-//W3C//DTD SVG 20010904//EN"
 "http://www.w3.org/TR/2001/REC-SVG-20010904/DTD/svg10.dtd">
<svg version="1.0" xmlns="http://www.w3.org/2000/svg"
 width="500.000000pt" height="500.000000pt" viewBox="0 0 500.000000 500.000000"
 preserveAspectRatio="xMidYMid meet">
<defs>
  <clipPath id="rounded">
    <rect width="500" height="500" rx="80" ry="80"/>
  </clipPath>
</defs>
<metadata>
Created by potrace 1.16, written by Peter Selinger 2001-2019
</metadata>
<g clip-path="url(#rounded)" transform="translate(0,0)"><g transform="translate(0.000000,500.000000) scale(0.100000,-0.100000)"
fill="#0D3F40" stroke="none">
<rect width="5000" height="5000" fill="#E8C47A"/>
<path d="M0 2500 l0 -2500 2500 0 2500 0 0 2500 0 2500 -2500 0 -2500 0 0
-2500z m2571 1509 c48 -53 59 -51 59 7 0 17 6 24 19 24 18 0 19 -6 14 -57 -6
-70 -9 -83 -22 -83 -12 0 -45 32 -81 78 -21 27 -26 29 -32 14 -4 -9 -7 -32 -7
-49 -1 -26 -5 -33 -20 -33 -17 0 -19 6 -14 63 8 107 15 110 84 36z m-197 -30
c25 -34 43 -66 40 -70 -8 -14 -31 -10 -38 6 -9 24 -88 13 -98 -14 -8 -24 -38
-29 -38 -6 0 8 10 44 21 80 29 88 50 88 113 4z m451 31 c3 -5 14 -10 24 -10
10 0 30 -9 45 -21 52 -41 21 -129 -46 -129 -36 0 -108 29 -108 44 0 6 9 36 20
66 11 30 20 56 20 57 0 8 40 2 45 -7z m-820 -90 c3 -5 -12 -18 -35 -30 -49
-25 -53 -44 -7 -35 17 4 36 11 42 16 16 16 43 10 59 -12 13 -19 13 -24 0 -43
-15 -25 -83 -66 -107 -66 -34 0 -25 20 16 39 24 11 50 27 57 36 11 13 8 15
-18 15 -17 0 -34 -4 -37 -10 -3 -5 -21 -10 -40 -10 -26 0 -35 5 -40 21 -13 39
90 112 110 79z m1165 -90 c7 -14 8 -26 0 -39 -5 -11 -10 -34 -10 -50 l0 -31
36 15 c40 17 90 20 98 6 8 -12 -72 -111 -89 -111 -29 0 -26 23 6 57 19 20 27
33 18 30 -57 -20 -100 -29 -106 -23 -4 3 -1 21 5 39 7 19 12 42 12 53 -1 15
-7 11 -31 -18 -30 -37 -49 -42 -49 -12 0 16 77 104 91 104 5 0 13 -9 19 -20z
m-1360 -37 c0 -4 -17 -24 -37 -45 -25 -26 -34 -41 -27 -48 7 -7 18 -2 34 15
24 25 50 33 50 15 0 -5 -12 -21 -27 -34 -20 -19 -24 -29 -16 -37 8 -8 22 -1
52 27 28 25 45 34 52 27 7 -7 -7 -26 -41 -59 -62 -60 -66 -61 -81 -33 -6 12
-24 33 -40 47 -16 13 -29 29 -29 35 0 16 81 97 97 97 7 0 13 -3 13 -7z m877
-68 c252 -66 418 -181 548 -380 63 -97 104 -187 120 -265 24 -119 26 -179 23
-975 l-3 -840 -877 -3 -878 -2 0 847 c0 894 0 904 46 1041 55 165 192 347 329
436 115 75 167 98 325 144 57 16 300 14 367 -3z m729 -147 c12 -12 24 -38 28
-56 5 -28 1 -38 -23 -63 -38 -38 -65 -37 -107 5 -27 27 -34 42 -34 74 0 43 13
59 57 71 32 9 49 3 79 -31z m-1776 17 c7 -8 10 -22 6 -30 -8 -21 21 -31 45
-17 25 16 49 15 49 0 0 -26 -17 -37 -60 -40 -53 -4 -65 -28 -28 -58 16 -13 20
-22 13 -29 -8 -8 -29 0 -70 26 -33 20 -62 38 -64 40 -3 2 1 9 7 15 8 8 18 9
35 1 21 -10 26 -8 37 13 11 20 11 28 1 48 -20 37 3 62 29 31z m1905 -259 c23
-71 18 -100 -18 -104 -18 -2 -29 2 -33 13 -9 23 -24 0 -24 -37 0 -35 -27 -38
-39 -5 -6 16 -3 30 11 50 27 38 20 61 -20 65 -37 4 -44 27 -9 37 23 7 61 22
87 35 22 11 26 6 45 -54z m-1925 3 c0 -5 -10 -13 -23 -18 -28 -11 -51 -75 -37
-102 6 -10 10 -22 10 -28 0 -16 -28 -13 -37 4 -5 8 -28 35 -51 59 -37 39 -42
48 -32 66 8 15 21 20 58 21 26 1 58 4 72 8 27 9 40 5 40 -10z m-195 -250 c0
-53 13 -79 39 -79 33 0 50 25 51 73 1 47 27 61 33 18 10 -71 -27 -131 -83
-131 -58 0 -89 62 -69 138 9 33 29 21 29 -19z m2173 29 c16 -22 21 -116 6
-129 -17 -14 -22 -2 -26 55 -2 22 -9 41 -16 44 -10 3 -13 -7 -11 -39 3 -34 0
-44 -11 -44 -9 0 -16 12 -18 30 -4 36 -18 53 -31 40 -6 -6 -6 -26 0 -54 5 -24
6 -48 2 -52 -18 -18 -31 10 -34 76 l-4 70 50 6 c28 3 57 7 66 7 9 1 21 -4 27
-10z m-2168 -978 c0 -571 -2 -650 -15 -650 -13 0 -15 78 -15 643 0 354 3 647
7 650 3 4 10 7 15 7 4 0 8 -292 8 -650z m2168 -8 c2 -575 0 -652 -13 -652 -13
0 -15 78 -15 656 0 520 3 655 13 652 9 -4 13 -146 15 -656z m-2174 -1038 c9
-3 16 -12 16 -20 0 -10 -14 -13 -53 -11 -57 2 -87 -12 -87 -42 0 -30 23 -41
83 -41 50 0 58 -2 55 -17 -4 -22 -87 -30 -129 -13 -56 23 -63 106 -11 134 28
16 98 21 126 10z m269 -67 c20 -40 37 -76 37 -80 0 -17 -39 -5 -45 13 -5 16
-15 20 -55 20 -40 0 -50 -4 -55 -20 -6 -19 -45 -29 -45 -12 0 4 16 40 37 80
32 61 41 72 63 72 21 0 31 -12 63 -73z m298 63 c25 -14 24 -45 -3 -64 -18 -13
-19 -18 -8 -31 7 -8 21 -15 32 -15 26 0 20 -33 -7 -39 -13 -2 -29 8 -46 28
-17 21 -36 33 -55 34 -26 2 -29 -1 -32 -31 -3 -25 -8 -32 -20 -30 -13 3 -18
17 -20 67 -2 35 -1 70 2 77 7 17 127 19 157 4z m274 -45 c15 -31 32 -58 36
-61 5 -3 9 -14 9 -25 0 -26 -37 -25 -45 1 -5 16 -15 20 -55 20 -39 0 -49 -3
-53 -20 -6 -23 -47 -28 -47 -6 0 7 9 24 19 38 11 14 27 43 36 66 14 35 22 42
44 42 23 0 32 -9 56 -55z m231 -1 l37 -56 35 57 c27 44 39 55 56 53 19 -3 21
-10 24 -80 3 -72 1 -78 -17 -78 -17 0 -20 8 -23 53 l-3 52 -35 -52 c-19 -29
-38 -53 -42 -53 -3 0 -18 21 -33 46 -15 25 -29 43 -33 40 -3 -3 -5 -24 -4 -47
2 -36 0 -40 -20 -37 -21 3 -23 9 -23 68 -1 80 2 90 26 90 11 0 32 -22 55 -56z
m429 47 c10 -16 -17 -25 -72 -22 -42 2 -53 -1 -53 -13 0 -11 13 -16 50 -18 67
-4 68 -22 2 -26 -44 -3 -53 -6 -50 -20 3 -13 15 -17 56 -18 29 -1 58 -6 64
-12 17 -17 -10 -23 -88 -20 l-69 3 -3 64 c-2 35 -1 70 2 77 6 16 151 20 161 5z
m155 -56 l0 -65 60 0 c47 0 60 -3 60 -15 0 -12 -16 -15 -80 -15 l-80 0 0 80
c0 73 2 80 20 80 18 0 20 -7 20 -65z m260 0 l0 -65 60 0 c47 0 60 -3 60 -15 0
-12 -15 -15 -79 -15 -44 0 -81 4 -83 10 -1 5 -2 41 0 80 3 61 6 70 23 70 17 0
19 -8 19 -65z m340 43 c6 -13 24 -45 40 -73 16 -27 29 -53 30 -57 0 -17 -36
-7 -48 12 -9 15 -23 20 -57 20 -34 0 -47 -5 -55 -20 -9 -17 -50 -29 -50 -15 0
3 18 39 41 80 33 62 45 75 65 75 16 0 28 -8 34 -22z m-1931 -314 c17 -4 31
-13 31 -21 0 -12 -10 -13 -54 -8 -37 5 -56 3 -61 -5 -10 -16 12 -30 47 -30 37
0 78 -20 78 -38 0 -33 -31 -52 -87 -52 -59 0 -93 13 -93 35 0 11 7 12 32 4 52
-14 108 -12 108 6 0 10 -16 16 -51 21 -52 7 -94 34 -86 57 9 30 71 44 136 31z
m181 -26 c33 -89 39 -91 58 -22 21 72 53 66 77 -14 13 -43 26 -39 44 12 12 38
26 55 44 56 13 0 7 -35 -16 -95 -19 -50 -27 -60 -46 -60 -19 0 -28 10 -44 54
l-21 54 -14 -34 c-31 -71 -36 -79 -54 -79 -11 0 -23 11 -30 28 -6 15 -16 41
-23 57 -27 64 -28 75 -7 75 13 0 24 -11 32 -32z m500 17 c0 -12 -13 -15 -60
-15 -46 0 -60 -3 -60 -14 0 -11 14 -16 48 -18 26 -2 47 -7 47 -13 0 -5 -21
-11 -47 -13 -40 -3 -48 -6 -48 -23 0 -17 7 -19 60 -19 47 0 60 -3 60 -15 0
-12 -15 -15 -79 -15 l-79 0 -4 71 c-2 38 1 74 7 80 5 5 42 9 82 9 58 0 73 -3
73 -15z m278 -2 c3 -10 -14 -13 -62 -13 -51 0 -66 -3 -66 -14 0 -11 14 -16 47
-18 66 -4 70 -28 4 -28 -44 0 -51 -3 -51 -20 0 -18 7 -20 65 -20 51 0 65 -3
65 -15 0 -12 -16 -15 -85 -15 l-85 0 0 73 c0 41 3 77 7 81 13 12 156 2 161
-11z m272 3 c0 -9 -12 -16 -32 -18 -33 -3 -33 -3 -36 -65 -2 -47 -7 -63 -17
-63 -14 0 -20 23 -17 60 1 8 -1 27 -4 43 -5 23 -10 27 -40 27 -32 0 -42 8 -27
23 3 4 44 7 90 7 65 0 83 -3 83 -14z m249 5 c25 -16 1 -31 -42 -25 -49 6 -82
-9 -57 -26 8 -5 31 -10 51 -10 43 0 72 -20 67 -45 -7 -39 -92 -58 -153 -35
-43 16 -19 32 38 25 58 -6 94 7 67 25 -8 5 -31 10 -51 10 -70 0 -101 57 -45
80 28 11 107 12 125 1z"/>
<path d="M2297 3970 c-4 -17 -1 -21 16 -18 25 3 30 31 6 36 -10 2 -19 -6 -22
-18z"/>
<path d="M2791 3944 c-7 -19 -11 -37 -9 -38 35 -30 81 -28 98 5 9 15 6 24 -14
44 -36 36 -59 32 -75 -11z"/>
<path d="M2447 3673 c-21 -38 -16 -67 27 -146 73 -137 93 -210 103 -377 5
-109 14 -122 113 -189 107 -72 206 -101 350 -101 103 0 177 13 236 41 27 13
29 19 30 69 2 91 -3 94 -89 55 -105 -49 -275 -44 -392 11 -78 36 -191 148
-228 226 -50 102 -60 243 -27 350 11 34 20 64 20 66 0 6 -139 1 -143 -5z"/>
<path d="M2653 3653 c-7 -2 -13 -14 -13 -24 0 -11 -5 -29 -11 -41 -6 -11 -11
-60 -11 -109 0 -76 4 -101 28 -161 73 -180 243 -278 449 -257 63 6 175 51 175
70 0 5 -9 32 -21 59 l-21 48 -60 -30 c-149 -74 -335 -10 -404 137 -19 40 -24
66 -24 130 1 51 6 89 15 105 8 14 14 32 15 40 0 26 -80 48 -117 33z"/>
<path d="M2220 3632 c-73 -27 -73 -29 -30 -74 43 -43 47 -50 97 -147 61 -118
76 -181 75 -316 0 -105 -4 -133 -27 -201 -29 -85 -87 -191 -133 -239 -132
-142 -302 -228 -467 -237 l-50 -3 -3 -78 -3 -79 53 3 c29 1 64 6 78 9 14 4 49
13 79 20 30 7 82 30 114 51 33 22 87 49 120 61 45 16 78 39 136 94 65 61 79
81 99 137 13 36 43 95 68 132 56 83 63 100 80 195 38 210 -14 436 -143 624
-51 74 -62 78 -143 48z"/>
<path d="M2823 3574 c-22 -34 -29 -125 -12 -166 38 -96 115 -157 211 -166 49
-5 117 16 150 45 16 14 16 17 1 42 -42 68 -192 202 -279 249 -52 27 -50 27
-71 -4z"/>
<path d="M2039 3539 c-24 -17 -48 -35 -53 -40 -5 -5 16 -35 50 -72 32 -34 64
-74 70 -87 39 -83 48 -113 57 -185 8 -66 7 -94 -7 -157 -27 -120 -69 -189
-166 -272 -47 -40 -70 -55 -122 -75 -13 -5 -35 -13 -49 -19 -14 -6 -51 -13
-82 -17 l-57 -7 0 -64 0 -64 38 0 c64 0 188 37 260 77 99 55 212 171 256 262
71 148 84 323 37 473 -23 72 -98 193 -153 246 l-34 32 -45 -31z"/>
<path d="M1886 3400 c-20 -22 -36 -42 -36 -44 0 -2 20 -24 43 -50 98 -104 113
-228 45 -360 -31 -62 -127 -126 -215 -144 l-38 -8 -3 -58 -3 -59 53 6 c205 21
368 206 368 417 0 81 -28 176 -67 230 -32 44 -95 110 -104 110 -4 0 -23 -18
-43 -40z"/>
<path d="M1771 3233 c-50 -100 -96 -271 -89 -331 3 -24 7 -27 41 -26 20 1 57
12 82 25 58 31 111 128 109 200 -3 74 -65 189 -103 189 -6 0 -24 -26 -40 -57z"/>
<path d="M2568 2948 c-8 -22 2 -36 22 -31 23 6 25 14 8 31 -15 15 -25 15 -30
0z"/>
<path d="M2633 2869 c-120 -55 -233 -234 -233 -366 l0 -43 55 0 c54 0 55 0 55
30 0 78 71 206 141 256 42 30 75 44 148 61 l34 8 -29 14 c-16 7 -50 24 -76 37
-27 13 -49 24 -50 24 -2 -1 -22 -10 -45 -21z"/>
<path d="M3283 2838 c-18 -6 -33 -14 -33 -19 0 -4 16 -25 35 -46 l35 -38 0 58
c0 31 -1 57 -2 56 -2 -1 -18 -6 -35 -11z"/>
<path d="M3058 2793 l-47 -4 52 -42 c98 -80 141 -169 140 -289 0 -76 -12 -110
-60 -185 -32 -48 -34 -56 -31 -122 l3 -71 31 22 c47 33 120 139 146 209 17 49
23 86 23 159 0 112 -15 161 -82 263 -49 74 -38 71 -175 60z"/>
<path d="M2790 2743 c-14 -2 -29 -9 -34 -14 -6 -5 -17 -9 -27 -9 -9 0 -39 -22
-67 -49 -52 -52 -82 -116 -82 -178 0 -33 0 -33 49 -33 l48 0 6 40 c7 53 28 84
77 115 63 40 114 42 180 8 87 -45 121 -134 84 -221 -14 -34 -14 -38 1 -47 9
-5 26 -18 37 -27 29 -25 33 -23 54 20 28 56 26 182 -3 243 -47 94 -132 149
-238 155 -33 1 -71 0 -85 -3z"/>
<path d="M2787 2560 c-27 -21 -52 -82 -44 -104 3 -8 20 -16 39 -19 18 -3 51
-11 73 -17 22 -7 56 -13 75 -14 l35 -1 3 53 c3 49 0 56 -31 87 -30 30 -42 35
-80 35 -29 0 -53 -7 -70 -20z"/>
<path d="M2310 2380 c-228 -43 -350 -112 -350 -198 0 -76 111 -145 310 -192
118 -27 457 -21 535 10 l30 12 -25 13 c-14 7 -99 43 -190 80 -91 37 -171 73
-178 79 -11 11 -2 15 45 24 102 20 265 49 376 68 60 9 107 22 107 28 0 6 -24
19 -53 29 -192 66 -415 83 -607 47z"/>
<path d="M2989 2236 c-3 -3 -31 -9 -64 -15 -300 -50 -286 -47 -259 -65 36 -24
188 -80 219 -80 16 0 58 6 93 13 l62 14 0 68 c0 66 -1 69 -23 69 -13 0 -26 -2
-28 -4z"/>
<path d="M1825 2210 c-16 -4 -56 -8 -87 -9 l-58 -1 0 -70 c0 -80 2 -81 100
-76 30 2 67 4 83 5 l27 1 0 80 c0 88 1 87 -65 70z"/>
<path d="M3293 2174 c-10 -14 -35 -44 -55 -67 -36 -41 -37 -42 -15 -48 12 -3
39 -4 60 -1 l37 4 0 69 c0 38 -2 69 -5 69 -2 0 -12 -12 -22 -26z"/>
<path d="M1960 1999 c0 -42 5 -55 32 -84 17 -19 36 -35 41 -35 6 0 18 -6 26
-14 23 -19 154 -61 241 -77 42 -8 144 -14 230 -14 150 0 207 7 328 42 l52 14
0 59 c0 63 -8 76 -37 61 -34 -18 -108 -31 -248 -43 -120 -10 -158 -9 -265 5
-146 19 -264 54 -343 101 l-57 35 0 -50z"/>
<path d="M2983 2022 c-6 -4 -12 -30 -13 -57 -3 -87 -1 -95 19 -95 46 0 51 9
51 86 0 70 -1 74 -22 74 -13 0 -28 -4 -35 -8z"/>
<path d="M3178 1992 l-68 -3 -1 -52 c-1 -29 0 -62 0 -74 3 -27 -11 -35 -79
-49 -50 -10 -38 -12 118 -13 l172 -1 0 95 c0 52 -3 95 -7 96 -22 3 -75 4 -135
1z"/>
<path d="M1680 1895 l0 -95 105 0 105 0 0 95 0 95 -105 0 -105 0 0 -95z"/>
<path d="M1959 1838 c-4 -39 5 -115 15 -130 32 -45 168 -113 259 -129 136 -24
240 -31 357 -25 123 7 293 35 310 52 10 10 16 141 8 149 -2 3 -38 -4 -79 -16
-95 -26 -371 -37 -503 -20 -127 17 -257 61 -322 108 -35 26 -43 28 -45 11z"/>
<path d="M1723 1732 l-43 -3 0 -85 0 -84 197 0 197 0 -50 31 c-56 36 -104 78
-104 93 0 6 -7 20 -15 30 -15 19 -78 26 -182 18z"/>
<path d="M2970 1645 l0 -85 175 0 175 0 0 85 0 85 -175 0 -175 0 0 -85z"/>
<path d="M1684 1487 c-3 -8 -4 -47 -2 -88 l3 -74 818 -3 818 -2 -3 87 -3 88
-310 0 c-170 -1 -366 -2 -435 -4 -69 -2 -295 -1 -503 3 -320 6 -378 5 -383 -7z"/>
<path d="M3326 3564 c-22 -21 -20 -50 4 -74 23 -23 33 -24 61 -10 25 14 25 54
-1 80 -24 24 -43 25 -64 4z"/>
<path d="M3491 3340 c-11 -6 -12 -16 -5 -42 12 -42 40 -45 36 -3 -5 42 -14 56
-31 45z"/>
<path d="M1497 3303 c-9 -9 12 -33 29 -33 8 0 14 9 14 20 0 19 -28 28 -43 13z"/>
<path d="M1612 1036 c-9 -19 -8 -25 4 -30 8 -3 20 -3 28 0 12 5 13 11 4 30 -6
13 -14 24 -18 24 -4 0 -12 -11 -18 -24z"/>
<path d="M1877 1063 c-17 -16 -3 -23 43 -23 49 0 66 12 34 24 -21 8 -69 8 -77
-1z"/>
<path d="M2192 1036 c-9 -21 -8 -25 10 -30 31 -8 39 1 26 29 -14 31 -22 31
-36 1z"/>
<path d="M3630 1041 c-10 -19 -9 -25 1 -32 30 -19 47 6 25 36 -13 18 -14 18
-26 -4z"/>
</g>
</g></svg>
